<svg xmlns="http://www.w3.org/2000/svg" viewBox="0 0 56 56" fill="none" aria-hidden="true" focusable="false">
  <circle cx="28" cy="28" r="28" fill="#25D366"/>
  <path d="M28 12c-8.8 0-16 7-16 15.7 0 3 0.9 5.8 2.5 8.2L12 44l8.5-2.3A16.5 16.5 0 0 0 28 43.4c8.8 0 16-7 16-15.7C44 19 36.8 12 28 12Z" fill="#fff"/>
  <path d="M22.8 21.1c-0.5 0-1 0.2-1.3 0.8-0.4 0.8-1.3 2.5-1.3 3.2 0 0.7 0.3 1.4 0.5 1.8 0.2 0.4 1.8 3.8 4.6 6 2.8 2.2 5.5 2.9 6.2 3.1 0.7 0.1 1.5 0.1 2-0.2 0.6-0.3 1.8-1.6 2.1-2.2 0.3-0.6 0.3-1.1 0.2-1.2-0.1-0.2-0.4-0.3-0.9-0.6-0.5-0.3-2.7-1.3-3.1-1.4-0.4-0.1-0.7-0.2-1 0.2-0.3 0.4-1 1.2-1.2 1.4-0.2 0.2-0.5 0.3-0.9 0.1-0.5-0.2-2-0.7-3.8-2.2-1.4-1.2-2.3-2.6-2.6-3.1-0.3-0.5 0-0.7 0.2-0.9 0.2-0.2 0.5-0.5 0.7-0.8 0.2-0.3 0.3-0.5 0.5-0.8 0.2-0.3 0.1-0.6 0-0.8-0.1-0.2-1.1-2.8-1.6-3.8-0.4-0.8-0.9-0.9-1.2-0.9h-1.1Z" fill="#25D366"/>
</svg>
